<svg width="100" height="100" viewBox="0 0 100 100" fill="none" xmlns="http://www.w3.org/2000/svg">
<g id="LogoGroup">
<rect id="Rectangle 8857" y="-0.000244141" width="100" height="100" rx="50" fill="#D93A31"/>
<g id="Group">
<path id="Vector" d="M82.8985 34.2199C82.4728 34.4003 82.047 34.8078 81.9244 35.1618C81.8738 35.2954 81.8522 35.5961 81.8666 35.8299C81.9821 37.5334 84.4717 37.9008 85.2366 36.3309C85.4242 35.9501 85.4242 35.5627 85.2438 35.1084C84.8902 34.2333 83.815 33.8191 82.8985 34.2199Z" fill="white"/>
<path id="Vector_2" d="M87.1416 34.1866C86.1963 34.5874 86.1963 35.9368 87.1416 36.3377C87.8199 36.6182 88.5487 36.3911 88.8951 35.7832C89.0972 35.4158 88.9961 34.7811 88.6859 34.4738C88.2818 34.073 87.6828 33.9594 87.1416 34.1866ZM88.3323 34.4471C89.1477 34.9882 88.7364 36.2642 87.7405 36.2642C87.4447 36.2642 87.0261 36.0771 86.853 35.87C86.4416 35.3757 86.687 34.5807 87.3364 34.3335C87.5962 34.2267 88.0869 34.2868 88.3323 34.4471Z" fill="white"/>
<path id="Vector_3" d="M87.1199 35.2955C87.1199 35.8032 87.1416 35.9302 87.221 35.9302C87.2931 35.9302 87.3364 35.8433 87.3509 35.6763C87.3797 35.3089 87.6106 35.3022 87.8632 35.663C87.9714 35.8099 88.1085 35.9302 88.1663 35.9302C88.3178 35.9302 88.3034 35.8767 88.0869 35.6162L87.8993 35.3824L88.0508 35.2889C88.2168 35.1753 88.2529 34.868 88.1158 34.7411C88.0652 34.6943 87.8343 34.6609 87.5746 34.6609H87.1199V35.2955ZM87.9426 34.9482C88.0436 35.0951 87.9065 35.1953 87.6034 35.1953C87.3941 35.1953 87.2931 35.0684 87.3653 34.888C87.423 34.7477 87.8343 34.7878 87.9426 34.9482Z" fill="white"/>
<path id="Vector_4" d="M47.9146 36.5647C47.6909 36.6181 47.4094 36.705 47.3012 36.7584C47.0703 36.872 46.7456 37.2327 46.6301 37.5133C46.5435 37.7204 46.2765 39.0832 46.2765 39.317V39.4707H52.5906C58.1831 39.4707 58.9336 39.484 59.1862 39.5776C59.5542 39.7112 59.6985 39.9183 59.6985 40.3191C59.6985 40.7266 59.5109 41.0139 59.1501 41.1809C58.8831 41.3011 58.6017 41.3078 53.1318 41.3412L47.395 41.3746L46.9837 41.5616C46.3847 41.8355 46.1177 42.2096 45.9879 42.9645C45.9301 43.3186 45.4827 48.703 45.4827 49.0838C45.4827 49.2241 45.5116 49.2241 47.4672 49.2241H49.4444L49.4805 49.0036C49.5021 48.8901 49.5887 47.8279 49.6681 46.6588C49.7547 45.483 49.8413 44.481 49.8629 44.4342C49.8918 44.3607 50.2815 44.3474 51.8618 44.3607L53.8174 44.3808L57.1512 47.9882C58.9841 49.9723 60.7088 51.8361 60.983 52.1301C61.9139 53.1321 62.5417 53.386 64.1148 53.3927C64.6127 53.3993 65.0457 53.3793 65.0745 53.3526C65.1034 53.3258 63.2921 51.3284 61.0551 48.9101C58.8181 46.4918 56.9564 44.4743 56.9275 44.4275C56.8914 44.3674 56.9492 44.3474 57.1512 44.3474C57.4543 44.3474 57.3677 44.2605 62.621 49.9923C65.1539 52.7513 65.4931 53.052 66.3734 53.2657C66.9507 53.406 68.3579 53.4795 68.3579 53.3726C68.3579 53.3058 67.1239 51.9096 66.0487 50.7606C65.6879 50.3798 62.5128 46.8859 60.8603 45.0488L60.2542 44.3875L60.8603 44.2739C62.3685 43.9933 63.054 43.4054 63.2272 42.243C63.3571 41.4214 63.5375 38.5555 63.487 38.2548C63.3643 37.5935 62.7654 36.9254 62.0365 36.6582L61.6108 36.4979L54.9719 36.4845C49.466 36.4778 48.2609 36.4912 47.9146 36.5647Z" fill="white"/>
<path id="Vector_5" d="M38.7719 36.5781C36.1813 36.8186 34.4566 37.1994 32.5732 37.9275C31.2094 38.4553 29.3765 39.5108 27.9621 40.5863C26.9446 41.3546 24.8592 43.2852 23.0768 45.1157C21.4748 46.759 19.2234 48.87 18.242 49.6583C16.6977 50.8942 14.9225 52.0098 13.2267 52.8182C12.6495 53.0921 12.166 53.3259 12.1515 53.3392C12.1371 53.3526 15.1029 53.366 18.7543 53.366L25.3859 53.3593L26.7209 51.7827C28.6043 49.5581 29.4919 48.5761 30.5022 47.6342C33.1072 45.1825 35.3803 44.0936 38.4327 43.8464L38.9883 43.7996V42.8777C38.9883 41.4013 39.2265 39.9851 39.6883 38.6757C39.8254 38.2883 40.28 37.3397 40.7058 36.5781C40.7347 36.5313 39.277 36.5313 38.7719 36.5781Z" fill="white"/>
<path id="Vector_6" d="M67.0737 38.2282C66.0273 38.5489 64.9738 39.3639 64.4903 40.2457C64.1872 40.8069 64.1367 41.1409 63.913 44.274C63.7687 46.3049 63.7976 46.5988 64.2233 47.4071C64.5408 48.0084 65.1253 48.5695 65.7531 48.8768C66.6046 49.2977 66.316 49.291 75.7042 49.291C80.3947 49.291 84.2337 49.2843 84.2337 49.271C84.2625 49.0973 84.4501 46.9929 84.4501 46.8326V46.6122L76.3031 46.6255C68.4231 46.6389 68.1489 46.6322 67.918 46.512C67.4922 46.2781 67.384 46.0711 67.384 45.4965V44.9821L73.2651 44.9487C79.8462 44.9087 79.4205 44.9421 79.9112 44.4277C80.3297 43.9934 80.3442 43.9066 80.5173 41.7355C80.6256 40.3593 80.5967 40.0787 80.3442 39.6111C80.1421 39.2503 79.2257 38.4821 78.7566 38.275L78.3525 38.1013L72.9765 38.088L67.6005 38.0746L67.0737 38.2282ZM76.7072 40.8937C77.068 41.0741 77.1546 41.2946 77.1041 41.8758L77.0536 42.3768L72.3487 42.3968L67.6365 42.4102V42.0227C67.6365 41.4816 67.8602 41.0941 68.286 40.8937L68.6035 40.7334L72.5435 40.7534C76.1444 40.7735 76.498 40.7802 76.7072 40.8937Z" fill="white"/>
<path id="Vector_7" d="M81.7006 38.0813C81.6934 38.1147 81.4336 41.3279 81.3182 42.811C81.2532 43.5993 81.1883 44.4076 81.1666 44.5947L81.1306 44.9487H82.8841H84.6448L84.6953 44.1938C84.7242 43.7863 84.8252 42.4837 84.919 41.3079C85.0201 40.1322 85.1139 38.923 85.1427 38.6157L85.186 38.0679H83.4469C82.4872 38.0679 81.7078 38.0746 81.7006 38.0813Z" fill="white"/>
<path id="Vector_8" d="M37.8049 45.2225C36.672 45.3762 35.3947 45.7971 34.3845 46.3449C32.6887 47.2601 31.2671 48.5828 29.2249 51.1614C28.626 51.9163 27.9765 52.718 27.7817 52.9451L27.4281 53.366H35.8277L44.22 53.3593L43.8953 53.1188C43.2314 52.6244 41.8965 51.3084 41.4707 50.7272C40.4027 49.2842 39.5512 47.3536 39.2553 45.7035L39.1615 45.1825L38.6925 45.1758C38.4399 45.1691 38.043 45.1891 37.8049 45.2225Z" fill="white"/>
<path id="Vector_9" d="M12.4618 54.6619C12.0144 54.8422 12 54.9091 12 56.5925C12 58.296 12.0289 58.4096 12.4618 58.6033C12.6639 58.6902 12.9742 58.7102 14.3308 58.7102C15.8967 58.7102 15.9544 58.7035 16.1926 58.5566C16.5822 58.3161 16.6328 58.0756 16.6039 56.4923C16.575 54.5015 16.6544 54.5684 14.3092 54.575C13.1041 54.575 12.6278 54.5951 12.4618 54.6619ZM15.7885 56.6393V57.942L14.2947 57.962L12.7938 57.9754V56.6393V55.3032L14.2947 55.3166L15.7885 55.3366V56.6393Z" fill="white"/>
<path id="Vector_10" d="M19.1442 56.3922C19.1442 58.383 19.1514 58.403 19.5771 58.6101C19.8658 58.7504 22.211 58.7571 22.5574 58.6168C23.0264 58.4364 23.0409 58.383 23.0409 56.3722V54.5618L22.6656 54.5818L22.2832 54.6019L22.2615 56.292L22.2471 57.9755L21.0709 57.9621L19.9019 57.9421L19.8802 56.2519L19.8658 54.5685H19.505H19.1442V56.3922Z" fill="white"/>
<path id="Vector_11" d="M25.5953 54.6619C25.5737 54.7153 25.5664 54.869 25.5809 55.0093L25.6025 55.2698L26.3819 55.2898L27.154 55.3099V57.0067V58.7102H27.5509H27.9478V57.0067V55.3099L28.7271 55.2898L29.4992 55.2698V54.9358V54.6018L27.5653 54.5817C25.9561 54.5683 25.6314 54.5817 25.5953 54.6619Z" fill="white"/>
<path id="Vector_12" d="M32.0969 54.6554C32.0753 54.7022 32.0681 55.6241 32.0753 56.7063L32.0969 58.677H33.8071H35.5102L35.6978 58.5167C36.0009 58.2495 36.0442 57.9889 36.0153 56.4925C35.9864 54.5017 36.0586 54.5685 33.735 54.5685C32.5082 54.5685 32.1186 54.5886 32.0969 54.6554ZM35.2215 56.6528L35.2359 57.9756H34.0453H32.8546V56.6395V55.3034L34.0308 55.3168L35.1999 55.3368L35.2215 56.6528Z" fill="white"/>
<path id="Vector_13" d="M38.938 54.7022C38.8153 54.769 38.671 54.8892 38.6349 54.9627C38.5844 55.0429 38.5555 55.6775 38.5555 56.6529C38.5555 58.8173 38.4328 58.7104 40.8286 58.7104C43.2243 58.7104 43.1017 58.824 43.1017 56.6395C43.1017 55.29 43.0872 55.0429 42.9862 54.9093C42.7553 54.6086 42.5027 54.5686 40.7781 54.5686C39.3132 54.5686 39.1472 54.5819 38.938 54.7022ZM42.3079 56.6395V57.9756H40.8286H39.3493V56.6395V55.3034H40.8286H42.3079V56.6395Z" fill="white"/>
<path id="Vector_14" d="M46.089 54.6754C45.6849 54.8558 45.6633 54.9694 45.6633 56.6796V58.2428L45.9014 58.4565L46.1323 58.677H47.9364H49.7404L49.9713 58.4565L50.2094 58.2428L50.2311 56.7063C50.2599 54.475 50.361 54.5685 47.9219 54.5685C46.623 54.5685 46.2694 54.5886 46.089 54.6754ZM49.4517 56.6395V57.9756L47.958 57.9622L46.457 57.9422L46.4354 56.7063C46.4282 56.0316 46.4354 55.437 46.4498 55.3902C46.4787 55.3234 46.8323 55.3034 47.9724 55.3034H49.4517V56.6395Z" fill="white"/>
<path id="Vector_15" d="M52.8074 54.6551C52.7858 54.7019 52.7786 55.6238 52.7858 56.706L52.8074 58.6767L53.1827 58.6968L53.5579 58.7168L53.5796 57.8951L53.6012 57.0734H53.9259H54.2507L54.9362 57.8884L55.6217 58.7101H56.1485C56.4299 58.7101 56.6681 58.6901 56.6681 58.6634C56.6681 58.6433 56.3939 58.2826 56.0547 57.8684C55.7155 57.4542 55.4413 57.1001 55.4413 57.0801C55.4413 57.0601 55.5929 57.04 55.7877 57.04C56.531 57.04 56.7835 56.6726 56.7258 55.6371C56.6681 54.6083 56.5887 54.5683 54.4383 54.5683C53.2188 54.5683 52.8291 54.5883 52.8074 54.6551ZM55.9104 55.8375V56.3386H54.7558H53.6012L53.5796 55.8175L53.5579 55.3031L54.7341 55.3165L55.9104 55.3365V55.8375Z" fill="white"/>
<path id="Vector_16" d="M62.6718 54.6821C62.2533 54.8692 62.2244 54.9961 62.2244 56.6729V58.176L62.4698 58.4298L62.7151 58.677H64.4398H66.1572L66.1789 57.4879L66.1933 56.3055H65.0748H63.9563V56.6395V56.9668L64.6635 56.9869L65.3634 57.0069L65.3851 57.4879L65.4067 57.9756H64.2089H63.0182V56.6395V55.3034L64.5913 55.29L66.1572 55.27V54.936V54.602L64.5336 54.5886C63.1481 54.5752 62.8739 54.5886 62.6718 54.6821Z" fill="white"/>
<path id="Vector_17" d="M68.9354 54.6819C68.5241 54.8756 68.5024 54.9758 68.5024 56.6259C68.5024 58.2893 68.5313 58.4095 68.9643 58.6033C69.1808 58.6968 69.4478 58.7101 70.826 58.6968L72.4352 58.6767V58.3427V58.0087L70.8621 57.9887L69.289 57.9753L69.3106 57.4876L69.3323 57.0066L70.8838 56.9732L72.4352 56.9398L72.4569 56.6259L72.4785 56.3052L70.9054 56.2918L69.3323 56.2718L69.3106 55.7908L69.289 55.3031L70.8621 55.2898L72.4352 55.2697V54.9357V54.6017L70.8116 54.5817C69.3828 54.5683 69.1591 54.5817 68.9354 54.6819Z" fill="white"/>
<path id="Vector_18" d="M75.3795 54.702C75.2568 54.7688 75.1125 54.889 75.0764 54.9625C75.0259 55.0427 74.997 55.7508 74.997 56.8998V58.7102H75.3578H75.7114L75.7331 58.0221L75.7547 57.3407L76.9309 57.3207L78.0999 57.3073V58.0088V58.7102H78.4968H78.8937V56.8865C78.8937 55.3099 78.8793 55.0427 78.7783 54.9091C78.5546 54.6218 78.2731 54.5683 76.8949 54.5683C75.7475 54.5683 75.5887 54.5817 75.3795 54.702ZM78.0999 55.9378V56.5725L76.9309 56.5591L75.7547 56.5391L75.7331 56.0113C75.7186 55.7174 75.7258 55.4435 75.7475 55.39C75.7764 55.3232 76.0433 55.3032 76.9454 55.3032H78.0999V55.9378Z" fill="white"/>
<path id="Vector_19" d="M81.4552 54.6551C81.4336 54.7019 81.4263 55.6238 81.4336 56.706L81.4552 58.6767L81.8304 58.6968L82.2057 58.7168L82.2273 57.8951L82.249 57.0734L82.5737 57.0534L82.8984 57.0333L83.584 57.8684L84.2695 58.7034L84.7963 58.7101C85.0777 58.7101 85.3158 58.6834 85.3158 58.65C85.3158 58.6233 85.0416 58.2625 84.7025 57.855C84.3633 57.4475 84.0891 57.0935 84.0891 57.0734C84.0891 57.0534 84.2551 57.04 84.4499 57.04C85.1715 57.04 85.388 56.7461 85.388 55.8041C85.388 55.0559 85.287 54.8088 84.9189 54.6618C84.5798 54.5349 81.5057 54.5215 81.4552 54.6551ZM84.5798 55.8175L84.5581 56.3386H83.4036H82.249L82.2273 55.911C82.2129 55.6772 82.2201 55.4434 82.2418 55.3966C82.2706 55.3231 82.5304 55.3031 83.4396 55.3031H84.6014L84.5798 55.8175Z" fill="white"/>
</g>
</g>
</svg>
